<svg xmlns="http://www.w3.org/2000/svg" viewBox="0 0 400 400" fill="none" stroke="currentColor" stroke-width="1.2" stroke-linecap="round" stroke-linejoin="round">
  <g opacity="0.85">
    <!-- main peony bloom -->
    <circle cx="240" cy="140" r="48" />
    <path d="M195 130 Q220 95 250 100 Q282 90 290 130 Q318 145 295 175 Q300 210 260 205 Q230 220 215 195 Q188 195 195 165 Q175 150 195 130 Z" />
    <path d="M215 135 Q235 120 255 130 Q275 130 275 155 Q280 175 255 175 Q235 185 220 170 Q205 160 215 135 Z" />
    <path d="M230 150 Q245 145 255 158 Q260 170 245 170 Q235 170 230 158 Z" />
    <circle cx="245" cy="160" r="6" />

    <!-- secondary smaller bloom -->
    <circle cx="320" cy="240" r="32" />
    <path d="M295 235 Q310 215 330 220 Q352 218 358 240 Q372 255 350 270 Q345 290 320 285 Q302 285 295 270 Q280 255 295 235 Z" />
    <path d="M310 240 Q322 230 335 240 Q345 245 340 258 Q330 268 318 260 Q302 252 310 240 Z" />

    <!-- bud -->
    <path d="M165 230 Q165 200 195 200 Q210 215 200 240 Q200 260 175 252 Q160 245 165 230 Z" />
    <path d="M180 215 Q187 207 195 213 Q198 222 188 225 Q180 222 180 215 Z" />

    <!-- leaves and stems -->
    <path d="M180 250 Q150 270 120 320" />
    <path d="M120 320 Q90 305 80 330" />
    <path d="M120 320 Q105 345 130 360" />
    <path d="M155 295 Q130 290 110 305 Q105 320 125 318 Q145 315 155 295 Z" />
    <path d="M105 350 Q85 360 70 350 Q70 330 90 335 Q110 340 105 350 Z" />
    <path d="M280 220 Q300 280 350 320" />
    <path d="M320 290 Q295 285 280 305 Q280 325 305 320 Q325 315 320 290 Z" />
    <path d="M260 195 Q225 215 200 250" />
    <path d="M225 230 Q210 245 195 235 Q195 215 215 215 Q235 218 225 230 Z" />

    <!-- stamens / detail -->
    <line x1="245" y1="155" x2="240" y2="135" />
    <line x1="245" y1="155" x2="252" y2="138" />
    <line x1="245" y1="155" x2="260" y2="142" />
  </g>
</svg>
